<svg xmlns="http://www.w3.org/2000/svg"  viewBox="0 0 64 64" width="64px" height="64px" fill-rule="evenodd" clip-rule="evenodd"><linearGradient id="0XjzL~oth0jTBcP_fJNREa" x1="32" x2="32" y1="17.213" y2="51.945" gradientUnits="userSpaceOnUse"><stop offset="0" stop-color="#6dc7ff"/><stop offset="1" stop-color="#e6abff"/></linearGradient><path fill="url(#0XjzL~oth0jTBcP_fJNREa)" fill-rule="evenodd" d="M31.669,51.74c0-2.723-1.723-5.132-4.287-5.992 c-6.053-2.035-10.02-7.701-9.869-14.1C17.7,23.715,24.062,17.5,31.998,17.5l0.152,0.001c7.907,0.08,14.341,6.584,14.341,14.499 c0,0.742-0.058,1.494-0.171,2.237c-1.274,8.399-9.498,14.514-14.651,17.575V51.74z" clip-rule="evenodd"/><g><linearGradient id="0XjzL~oth0jTBcP_fJNREb" x1="32" x2="32" y1="7" y2="57.819" gradientUnits="userSpaceOnUse"><stop offset="0" stop-color="#1a6dff"/><stop offset="1" stop-color="#c822ff"/></linearGradient><path fill="url(#0XjzL~oth0jTBcP_fJNREb)" d="M32,58c-1.149,0-2.313-0.077-3.462-0.229c-0.014-0.002-0.028-0.004-0.042-0.007 C15.676,56.034,6.013,44.966,6.013,32C6.013,17.663,17.671,6,32,6s25.987,11.663,25.987,26S46.329,58,32,58z M31.994,13.5 c0.065,0,0.131,0,0.196,0.001c10.091,0.102,18.301,8.4,18.301,18.499c0,0.943-0.073,1.898-0.217,2.84 C48.631,45.671,38.014,52.9,32.442,55.996C45.466,55.759,55.987,45.086,55.987,32C55.987,18.767,45.227,8,32,8 S8.013,18.767,8.013,32c0,11.597,8.372,21.549,19.656,23.608v-3.867c0-1.003-0.627-1.888-1.561-2.201 c-7.725-2.598-12.786-9.825-12.595-17.985C13.753,21.395,21.854,13.5,31.994,13.5z M31.995,15.5 c-9.044,0-16.269,7.04-16.481,16.102c-0.171,7.279,4.343,13.727,11.231,16.042c1.749,0.588,2.924,2.234,2.924,4.098v3.448 c4.266-2.166,16.934-9.479,18.629-20.65c0.128-0.843,0.193-1.696,0.193-2.539c0-9.007-7.321-16.408-16.32-16.499 C32.112,15.5,32.054,15.5,31.995,15.5z"/></g></svg>