<svg version="1.1" id="Layer_1" xmlns:x="ns_extend;" xmlns:i="ns_ai;" xmlns:graph="ns_graphs;" xmlns="http://www.w3.org/2000/svg" xmlns:xlink="http://www.w3.org/1999/xlink" x="0px" y="0px" viewBox="0 0 810 81" style="enable-background:new 0 0 810 81;" xml:space="preserve">
 <style type="text/css">
  .st0{fill-rule:evenodd;clip-rule:evenodd;fill:#294E9B;}
	.st1{fill-rule:evenodd;clip-rule:evenodd;fill:#FF7000;}
 </style>
 <metadata>
  <sfw xmlns="ns_sfw;">
   <slices>
   </slices>
   <sliceSourceBounds bottomLeftOrigin="true" height="81" width="810" x="-315" y="-31.5">
   </sliceSourceBounds>
  </sfw>
 </metadata>
 <desc>
  Created with Sketch.
 </desc>
 <g id="Web">
  <g id="_x33_" transform="translate(-120.000000, -30.000000)">
   <g id="Top-Bar">
    <g id="Brand-logo" transform="translate(120.000000, 30.000000)">
     <path id="Fill-1-Copy-8" class="st0" d="M748.9,1.1V15h22v64.9H788V15h22V1.1H748.9z M617.6,47.2C623.3,29,626.8,17.6,628,13
					c0.3,1.3,0.8,3.1,1.5,5.3c0.7,2.2,3.7,11.8,9.2,28.8H617.6z M617.4,0.8l-28.5,79.1h18.5l5.9-18.8h29.5l5.9,18.8h18.5L638.4,0.8
					H617.4z M580,1.1h-19L539,27.9l-6.7,9.3V1.1h-17.1v78.8h17.1V51.8l7.2-5.1l21.2,33.2h19.5L551.7,36L580,1.1z M463.8,49.6h15.3
					V66c-3.7,0.7-7.3,1.1-10.9,1.1c-6.9,0-12.1-2.3-15.7-6.8c-3.6-4.5-5.4-11-5.4-19.6c0-8.2,2.2-14.7,6.7-19.6
					c4.5-4.8,10.4-7.3,17.8-7.3c6.4,0,12.5,1.4,18.4,4.3l5.7-13.4C488,1.6,480,0,471.7,0c-13.2,0-23.6,3.6-31.1,10.7
					c-7.5,7.1-11.2,17-11.2,29.7c0,13.1,3.2,23.1,9.7,30.1c6.4,7,15.8,10.5,28,10.5c4.8,0,9.5-0.3,14.1-1c4.6-0.7,9.5-1.8,14.7-3.5
					V35.7h-32.1V49.6z M397.3,38.4c0,4.2,0.3,11.5,0.8,21.7h-0.4l-35.1-59H341v78.8h15.3V42.8c0-4.5-0.3-12-1.1-22.5h0.5l35.2,59.6
					h21.8V1.1h-15.4V38.4z M303.5,79.9h17.1V1.1h-17.1V79.9z M244.1,66.1h-7.4V14.8h9.1c15.3,0,23,8.5,23,25.4
					C268.9,57.5,260.6,66.1,244.1,66.1L244.1,66.1z M245,1.1h-25.4v78.8h22.9c14.3,0,25.3-3.4,32.8-10.3
					c7.6-6.9,11.4-16.8,11.4-29.8c0-12.2-3.7-21.7-11-28.5C268.4,4.5,258.2,1.1,245,1.1L245,1.1z M183.8,38.4
					c0,4.2,0.3,11.5,0.8,21.7h-0.4l-35.1-59h-21.6v78.8h15.3V42.8c0-4.5-0.4-12-1.1-22.5h0.5l35.2,59.6h21.8V1.1h-15.4V38.4z
					 M64,79.9h46.6V66.1H81.2V45.8h27.4V32.1H81.2V14.8h29.4V1.1H64V79.9z M17.2,1.1H0v78.8h50V66.1H17.2V1.1z">
     </path>
     <path id="Fill-1-Copy-9" class="st1" d="M683.3,0l-5.9,7.5h15.3c1.5,0.1,11.5,1.1,15.3,8.7h-24.7l-5.9,7.4h32.1
					c0,0.1,0,0.3,0,0.4c0,0,0.4,16.3-28.5,13.4v8.7L711.6,81h11.8v-2.5l-29.5-34.9c0,0,23.2,0.3,27.1-19.9c0,0,0,0,0-0.1h9.9
					l5.4-7.4H721c-0.6-2.8-2.4-6.2-4.7-8.7h15.3l4.7-7.5L683.3,0z">
     </path>
    </g>
   </g>
  </g>
 </g>
</svg>